<svg width="28" height="28" viewBox="0 0 28 28" fill="none" xmlns="http://www.w3.org/2000/svg">
<rect width="28" height="28" rx="4" fill="#E1E0F9"/>
<g clip-path="url(#clip0_52919_23861)">
<path d="M11 6H7C6.44772 6 6 6.44772 6 7V11C6 11.5523 6.44772 12 7 12H11C11.5523 12 12 11.5523 12 11V7C12 6.44772 11.5523 6 11 6Z" fill="#191A2C" stroke="#191A2C" stroke-width="1.5" stroke-linecap="round" stroke-linejoin="round"/>
<path d="M21 6H17C16.4477 6 16 6.44772 16 7V11C16 11.5523 16.4477 12 17 12H21C21.5523 12 22 11.5523 22 11V7C22 6.44772 21.5523 6 21 6Z" fill="#191A2C" stroke="#191A2C" stroke-width="1.5" stroke-linecap="round" stroke-linejoin="round"/>
<path d="M11 16H7C6.44772 16 6 16.4477 6 17V21C6 21.5523 6.44772 22 7 22H11C11.5523 22 12 21.5523 12 21V17C12 16.4477 11.5523 16 11 16Z" fill="#191A2C" stroke="#191A2C" stroke-width="1.5" stroke-linecap="round" stroke-linejoin="round"/>
<path d="M21 16H17C16.4477 16 16 16.4477 16 17V21C16 21.5523 16.4477 22 17 22H21C21.5523 22 22 21.5523 22 21V17C22 16.4477 21.5523 16 21 16Z" fill="#191A2C" stroke="#191A2C" stroke-width="1.5" stroke-linecap="round" stroke-linejoin="round"/>
</g>
<defs>
<clipPath id="clip0_52919_23861">
<rect width="24" height="24" fill="white" transform="translate(2 2)"/>
</clipPath>
</defs>
</svg>
